<svg width="238" height="235" viewBox="0 0 238 235" fill="none" xmlns="http://www.w3.org/2000/svg">
<path d="M197.783 39.0863L139.984 19.8101C139.625 19.6902 139.228 19.7837 138.961 20.0516L119.121 39.8914C118.601 40.4113 118.801 41.2958 119.494 41.5412L175.518 61.3744C175.802 61.4752 176.026 61.6989 176.127 61.9834L195.96 118.007C196.205 118.7 197.09 118.9 197.61 118.38L217.449 98.5405C217.717 98.2726 217.811 97.8764 217.691 97.517L198.415 39.7186C198.315 39.4201 198.081 39.1858 197.783 39.0863Z" stroke="white" stroke-width="10"/>
<path d="M156.783 80.0863L98.9841 60.8101C98.6247 60.6902 98.2285 60.7837 97.9606 61.0516L78.1208 80.8914C77.6009 81.4113 77.801 82.2958 78.4942 82.5412L134.518 102.374C134.802 102.475 135.026 102.699 135.127 102.983L154.96 159.007C155.205 159.7 156.09 159.9 156.61 159.38L176.449 139.54C176.717 139.273 176.811 138.876 176.691 138.517L157.415 80.7186C157.315 80.4201 157.081 80.1858 156.783 80.0863Z" stroke="white" stroke-width="10"/>
<path d="M19.7991 214.367L76.3676 157.799" stroke="white" stroke-width="10" stroke-linecap="round"/>
<path d="M17.6777 176.891L43.1336 151.435" stroke="white" stroke-width="8" stroke-linecap="round"/>
<path d="M57.2756 216.489L82.7315 191.033" stroke="white" stroke-width="8" stroke-linecap="round"/>
<path d="M115.783 121.086L57.9841 101.81C57.6247 101.69 57.2285 101.784 56.9606 102.052L37.1208 121.891C36.6009 122.411 36.801 123.296 37.4942 123.541L93.5177 143.374C93.8021 143.475 94.0259 143.699 94.1266 143.983L113.96 200.007C114.205 200.7 115.09 200.9 115.61 200.38L135.449 180.54C135.717 180.273 135.811 179.876 135.691 179.517L116.415 121.719C116.315 121.42 116.081 121.186 115.783 121.086Z" stroke="white" stroke-width="10"/>
</svg>
